<svg width="40" height="40" viewBox="0 0 40 40" fill="none" xmlns="http://www.w3.org/2000/svg">
<rect width="40" height="40" rx="5" fill="#FFC700"/>
<path d="M28 17C26.597 14.04 23.537 12 20 12C18.8181 12 17.6478 12.2328 16.5558 12.6851C15.4639 13.1374 14.4718 13.8003 13.636 14.636C12.8003 15.4718 12.1374 16.4639 11.6851 17.5558C11.2328 18.6478 11 19.8181 11 21C11 22.1819 11.2328 23.3522 11.6851 24.4442C12.1374 25.5361 12.8003 26.5282 13.636 27.364C14.4718 28.1997 15.4639 28.8626 16.5558 29.3149C17.6478 29.7672 18.8181 30 20 30C22.3869 30 24.6761 29.0518 26.364 27.364C28.0518 25.6761 29 23.3869 29 21M29 12V18H23" stroke="white" stroke-width="2"/>
</svg>
