<svg width="40" height="40" viewBox="0 0 40 40" fill="none" xmlns="http://www.w3.org/2000/svg">
<rect width="40" height="40" rx="5" fill="#2E8F00"/>
<path fill-rule="evenodd" clip-rule="evenodd" d="M29.264 10.293C29.1711 10.2001 29.0608 10.1263 28.9394 10.076C28.818 10.0257 28.6879 9.99976 28.5565 9.99976C28.425 9.99976 28.2949 10.0257 28.1735 10.076C28.0521 10.1263 27.9418 10.2001 27.849 10.293L26.977 11.165C26.4169 10.8978 25.7878 10.8107 25.1762 10.9159C24.5646 11.021 24.0006 11.3131 23.562 11.752L12.955 22.358L18.612 28.015L29.22 17.408C29.6588 16.9695 29.9507 16.4056 30.0557 15.7942C30.1606 15.1828 30.0734 14.5538 29.806 13.994L30.679 13.121C30.8664 12.9335 30.9717 12.6792 30.9717 12.414C30.9717 12.1489 30.8664 11.8946 30.679 11.707L29.264 10.293ZM24.996 18.803L18.612 25.187L15.784 22.358L22.167 15.975L24.996 18.803ZM26.814 16.985L27.804 15.995C27.8969 15.9022 27.9707 15.7919 28.021 15.6705C28.0713 15.5491 28.0972 15.419 28.0972 15.2875C28.0972 15.1561 28.0713 15.026 28.021 14.9046C27.9707 14.7832 27.8969 14.6729 27.804 14.58L26.391 13.166C26.2981 13.0731 26.1878 12.9993 26.0664 12.949C25.945 12.8987 25.8149 12.8728 25.6835 12.8728C25.552 12.8728 25.4219 12.8987 25.3005 12.949C25.1791 12.9993 25.0688 13.0731 24.976 13.166L23.986 14.156L26.814 16.986V16.985Z" fill="white"/>
<path d="M10 30.95L12.122 23.172L17.778 28.829L10 30.95Z" fill="white"/>
</svg>
