<svg width="24" height="24" viewBox="0 0 24 24" fill="none" xmlns="http://www.w3.org/2000/svg">
<path d="M11.4475 11.4286C11.4475 11.7127 11.5722 11.9852 11.7943 12.1862C12.0164 12.3871 12.3176 12.5 12.6317 12.5C12.9458 12.5 13.247 12.3871 13.4691 12.1862C13.6911 11.9852 13.8159 11.7127 13.8159 11.4286C13.8159 11.1444 13.6911 10.8719 13.4691 10.6709C13.247 10.47 12.9458 10.3571 12.6317 10.3571C12.3176 10.3571 12.0164 10.47 11.7943 10.6709C11.5722 10.8719 11.4475 11.1444 11.4475 11.4286ZM16.3817 11.4286C16.3817 11.7127 16.5065 11.9852 16.7285 12.1862C16.9506 12.3871 17.2518 12.5 17.5659 12.5C17.88 12.5 18.1812 12.3871 18.4033 12.1862C18.6253 11.9852 18.7501 11.7127 18.7501 11.4286C18.7501 11.1444 18.6253 10.8719 18.4033 10.6709C18.1812 10.47 17.88 10.3571 17.5659 10.3571C17.2518 10.3571 16.9506 10.47 16.7285 10.6709C16.5065 10.8719 16.3817 11.1444 16.3817 11.4286ZM6.51327 11.4286C6.51327 11.7127 6.63803 11.9852 6.86012 12.1862C7.0822 12.3871 7.38341 12.5 7.69748 12.5C8.01155 12.5 8.31276 12.3871 8.53484 12.1862C8.75693 11.9852 8.88169 11.7127 8.88169 11.4286C8.88169 11.1444 8.75693 10.8719 8.53484 10.6709C8.31276 10.47 8.01155 10.3571 7.69748 10.3571C7.38341 10.3571 7.0822 10.47 6.86012 10.6709C6.63803 10.8719 6.51327 11.1444 6.51327 11.4286ZM22.8258 7.55356C22.2682 6.3549 21.4689 5.27901 20.4499 4.3549C19.4382 3.43614 18.237 2.70584 16.9146 2.20534C15.5577 1.68972 14.1169 1.42856 12.6317 1.42856H12.5823C11.0873 1.43525 9.63909 1.70311 8.27725 2.2299C6.96612 2.73553 5.77626 3.46712 4.77396 4.38392C3.76491 5.30579 2.97297 6.37722 2.42528 7.57142C1.85784 8.80802 1.57166 10.1228 1.57906 11.4754C1.58743 13.0256 1.99277 14.5529 2.76327 15.9375V19.3303C2.76327 19.6027 2.88284 19.8638 3.09566 20.0564C3.30849 20.249 3.59715 20.3571 3.89814 20.3571H7.65061C9.18094 21.0542 10.869 21.421 12.5823 21.4286H12.6342C14.112 21.4286 15.5453 21.1696 16.8948 20.6629C18.2106 20.1684 19.4073 19.4466 20.4179 18.5379C21.4368 17.625 22.2386 16.558 22.7986 15.3683C23.3809 14.1361 23.6769 12.8259 23.6843 11.4732C23.6917 10.1138 23.4006 8.79463 22.8258 7.55356ZM19.098 17.3303C17.3685 18.8795 15.0741 19.7321 12.6317 19.7321H12.5897C11.1021 19.7254 9.62429 19.3906 8.31919 18.7611L8.11195 18.6607H4.63827V15.5178L4.52725 15.3303C3.83153 14.1495 3.46146 12.8125 3.45406 11.4665C3.44419 9.24106 4.38416 7.15177 6.10866 5.57811C7.8307 4.00445 10.1325 3.13392 12.5922 3.12499H12.6342C13.8677 3.12499 15.0643 3.3415 16.1917 3.77008C17.2921 4.18749 18.2789 4.78793 19.1276 5.55579C19.9738 6.32142 20.6399 7.21651 21.1013 8.21204C21.5799 9.24329 21.8192 10.337 21.8143 11.4665C21.7995 13.6897 20.8348 15.7723 19.098 17.3303Z" fill="#5B5B5B"/>
</svg>
