<svg width="282" height="25" viewBox="0 0 282 25" fill="none" xmlns="http://www.w3.org/2000/svg">
<path d="M0.4625 19V0.374998H3.4375L13.4375 13.55L11.8375 13.925V0.374998H15.7125V19H12.7125L2.8875 5.725L4.3375 5.35V19H0.4625ZM25.3172 19.3C23.8672 19.3 22.6089 18.9833 21.5422 18.35C20.4755 17.7 19.6505 16.8333 19.0672 15.75C18.4839 14.6667 18.1922 13.4667 18.1922 12.15C18.1922 10.7833 18.4922 9.56667 19.0922 8.5C19.7089 7.43333 20.5339 6.59167 21.5672 5.975C22.6005 5.35833 23.7672 5.05 25.0672 5.05C26.1505 5.05 27.1089 5.225 27.9422 5.575C28.7755 5.90833 29.4755 6.38333 30.0422 7C30.6255 7.61667 31.0672 8.33333 31.3672 9.15C31.6672 9.95 31.8172 10.825 31.8172 11.775C31.8172 12.0417 31.8005 12.3083 31.7672 12.575C31.7505 12.825 31.7089 13.0417 31.6422 13.225H21.4172V10.475H29.5172L27.7422 11.775C27.9089 11.0583 27.9005 10.425 27.7172 9.875C27.5339 9.30833 27.2089 8.86667 26.7422 8.55C26.2922 8.21667 25.7339 8.05 25.0672 8.05C24.4172 8.05 23.8589 8.20833 23.3922 8.525C22.9255 8.84167 22.5755 9.30833 22.3422 9.925C22.1089 10.5417 22.0172 11.2917 22.0672 12.175C22.0005 12.9417 22.0922 13.6167 22.3422 14.2C22.5922 14.7833 22.9755 15.2417 23.4922 15.575C24.0089 15.8917 24.6339 16.05 25.3672 16.05C26.0339 16.05 26.6005 15.9167 27.0672 15.65C27.5505 15.3833 27.9255 15.0167 28.1922 14.55L31.1922 15.975C30.9255 16.6417 30.5005 17.225 29.9172 17.725C29.3505 18.225 28.6755 18.6167 27.8922 18.9C27.1089 19.1667 26.2505 19.3 25.3172 19.3ZM40.6004 19.3C39.1504 19.3 37.8921 18.9833 36.8254 18.35C35.7587 17.7 34.9337 16.8333 34.3504 15.75C33.7671 14.6667 33.4754 13.4667 33.4754 12.15C33.4754 10.7833 33.7754 9.56667 34.3754 8.5C34.9921 7.43333 35.8171 6.59167 36.8504 5.975C37.8837 5.35833 39.0504 5.05 40.3504 5.05C41.4337 5.05 42.3921 5.225 43.2254 5.575C44.0587 5.90833 44.7587 6.38333 45.3254 7C45.9087 7.61667 46.3504 8.33333 46.6504 9.15C46.9504 9.95 47.1004 10.825 47.1004 11.775C47.1004 12.0417 47.0837 12.3083 47.0504 12.575C47.0337 12.825 46.9921 13.0417 46.9254 13.225H36.7004V10.475H44.8004L43.0254 11.775C43.1921 11.0583 43.1837 10.425 43.0004 9.875C42.8171 9.30833 42.4921 8.86667 42.0254 8.55C41.5754 8.21667 41.0171 8.05 40.3504 8.05C39.7004 8.05 39.1421 8.20833 38.6754 8.525C38.2087 8.84167 37.8587 9.30833 37.6254 9.925C37.3921 10.5417 37.3004 11.2917 37.3504 12.175C37.2837 12.9417 37.3754 13.6167 37.6254 14.2C37.8754 14.7833 38.2587 15.2417 38.7754 15.575C39.2921 15.8917 39.9171 16.05 40.6504 16.05C41.3171 16.05 41.8837 15.9167 42.3504 15.65C42.8337 15.3833 43.2087 15.0167 43.4754 14.55L46.4754 15.975C46.2087 16.6417 45.7837 17.225 45.2004 17.725C44.6337 18.225 43.9587 18.6167 43.1754 18.9C42.3921 19.1667 41.5337 19.3 40.6004 19.3ZM55.7336 19.3C54.4003 19.3 53.2086 18.9833 52.1586 18.35C51.1086 17.7167 50.2753 16.8583 49.6586 15.775C49.0586 14.6917 48.7586 13.4917 48.7586 12.175C48.7586 10.8417 49.0669 9.64167 49.6836 8.575C50.3003 7.49167 51.1336 6.63333 52.1836 6C53.2336 5.36667 54.4086 5.05 55.7086 5.05C56.7086 5.05 57.5919 5.24167 58.3586 5.625C59.1419 5.99167 59.7586 6.51667 60.2086 7.2L59.6336 7.95V0.0749993H63.3836V19H59.8836V16.5L60.2336 17.275C59.7669 17.9417 59.1336 18.45 58.3336 18.8C57.5336 19.1333 56.6669 19.3 55.7336 19.3ZM56.1836 15.925C56.8669 15.925 57.4669 15.7667 57.9836 15.45C58.5003 15.1333 58.9003 14.6917 59.1836 14.125C59.4836 13.5583 59.6336 12.9083 59.6336 12.175C59.6336 11.4417 59.4836 10.7917 59.1836 10.225C58.9003 9.65833 58.5003 9.21667 57.9836 8.9C57.4669 8.58333 56.8669 8.425 56.1836 8.425C55.5003 8.425 54.8836 8.59167 54.3336 8.925C53.8003 9.24167 53.3836 9.68333 53.0836 10.25C52.7836 10.8 52.6336 11.4417 52.6336 12.175C52.6336 12.9083 52.7836 13.5583 53.0836 14.125C53.3836 14.6917 53.8003 15.1333 54.3336 15.45C54.8836 15.7667 55.5003 15.925 56.1836 15.925ZM75.9721 19.3C74.4721 19.3 73.1637 18.95 72.0471 18.25C70.9471 17.5333 70.1971 16.575 69.7971 15.375L72.5471 14.075C72.8971 14.8083 73.3721 15.3833 73.9721 15.8C74.5721 16.2167 75.2387 16.425 75.9721 16.425C76.5054 16.425 76.9137 16.3167 77.1971 16.1C77.4804 15.8833 77.6221 15.5833 77.6221 15.2C77.6221 15 77.5721 14.8333 77.4721 14.7C77.3721 14.55 77.2221 14.4167 77.0221 14.3C76.8221 14.1833 76.5721 14.0833 76.2721 14L73.9471 13.35C72.8304 13.0333 71.9721 12.525 71.3721 11.825C70.7721 11.1083 70.4721 10.2667 70.4721 9.3C70.4721 8.45 70.6887 7.70833 71.1221 7.075C71.5554 6.44167 72.1637 5.95 72.9471 5.6C73.7304 5.23333 74.6304 5.05 75.6471 5.05C76.9804 5.05 78.1471 5.36667 79.1471 6C80.1637 6.61667 80.8804 7.49167 81.2971 8.625L78.5221 9.925C78.3221 9.35833 77.9554 8.90833 77.4221 8.575C76.9054 8.225 76.3137 8.05 75.6471 8.05C75.1637 8.05 74.7804 8.15 74.4971 8.35C74.2304 8.55 74.0971 8.825 74.0971 9.175C74.0971 9.35833 74.1471 9.525 74.2471 9.675C74.3471 9.825 74.5054 9.95833 74.7221 10.075C74.9554 10.1917 75.2387 10.3 75.5721 10.4L77.7471 11.05C78.8804 11.3833 79.7471 11.8917 80.3471 12.575C80.9471 13.2417 81.2471 14.0667 81.2471 15.05C81.2471 15.9 81.0221 16.6417 80.5721 17.275C80.1387 17.9083 79.5304 18.4083 78.7471 18.775C77.9637 19.125 77.0387 19.3 75.9721 19.3ZM90.2633 19.3C88.9133 19.3 87.6799 18.9917 86.5633 18.375C85.4633 17.7583 84.5799 16.9167 83.9133 15.85C83.2633 14.7667 82.9383 13.5417 82.9383 12.175C82.9383 10.7917 83.2633 9.56667 83.9133 8.5C84.5799 7.43333 85.4633 6.59167 86.5633 5.975C87.6799 5.35833 88.9133 5.05 90.2633 5.05C91.6133 5.05 92.8383 5.35833 93.9383 5.975C95.0383 6.59167 95.9133 7.43333 96.5633 8.5C97.2299 9.56667 97.5633 10.7917 97.5633 12.175C97.5633 13.5417 97.2299 14.7667 96.5633 15.85C95.9133 16.9167 95.0383 17.7583 93.9383 18.375C92.8383 18.9917 91.6133 19.3 90.2633 19.3ZM90.2633 15.925C90.9466 15.925 91.5383 15.7667 92.0383 15.45C92.5549 15.1333 92.9549 14.6917 93.2383 14.125C93.5383 13.5583 93.6883 12.9083 93.6883 12.175C93.6883 11.4417 93.5383 10.8 93.2383 10.25C92.9549 9.68333 92.5549 9.24167 92.0383 8.925C91.5383 8.59167 90.9466 8.425 90.2633 8.425C89.5799 8.425 88.9799 8.59167 88.4633 8.925C87.9466 9.24167 87.5383 9.68333 87.2383 10.25C86.9549 10.8 86.8133 11.4417 86.8133 12.175C86.8133 12.9083 86.9549 13.5583 87.2383 14.125C87.5383 14.6917 87.9466 15.1333 88.4633 15.45C88.9799 15.7667 89.5799 15.925 90.2633 15.925ZM99.7725 19V5.35H103.272V8.675L102.897 8.125C103.097 7.075 103.581 6.3 104.347 5.8C105.114 5.3 106.031 5.05 107.097 5.05C108.231 5.05 109.222 5.34167 110.072 5.925C110.939 6.49167 111.481 7.25833 111.697 8.225L110.622 8.325C111.072 7.20833 111.714 6.38333 112.547 5.85C113.381 5.31667 114.356 5.05 115.472 5.05C116.456 5.05 117.322 5.26667 118.072 5.7C118.839 6.13333 119.439 6.74167 119.872 7.525C120.306 8.29167 120.522 9.19167 120.522 10.225V19H116.772V11.025C116.772 10.4917 116.672 10.0333 116.472 9.65C116.289 9.26667 116.022 8.96667 115.672 8.75C115.322 8.53333 114.897 8.425 114.397 8.425C113.914 8.425 113.489 8.53333 113.122 8.75C112.772 8.96667 112.497 9.26667 112.297 9.65C112.114 10.0333 112.022 10.4917 112.022 11.025V19H108.272V11.025C108.272 10.4917 108.172 10.0333 107.972 9.65C107.789 9.26667 107.522 8.96667 107.172 8.75C106.822 8.53333 106.397 8.425 105.897 8.425C105.414 8.425 104.989 8.53333 104.622 8.75C104.272 8.96667 103.997 9.26667 103.797 9.65C103.614 10.0333 103.522 10.4917 103.522 11.025V19H99.7725ZM129.565 19.3C128.115 19.3 126.857 18.9833 125.79 18.35C124.724 17.7 123.899 16.8333 123.315 15.75C122.732 14.6667 122.44 13.4667 122.44 12.15C122.44 10.7833 122.74 9.56667 123.34 8.5C123.957 7.43333 124.782 6.59167 125.815 5.975C126.849 5.35833 128.015 5.05 129.315 5.05C130.399 5.05 131.357 5.225 132.19 5.575C133.024 5.90833 133.724 6.38333 134.29 7C134.874 7.61667 135.315 8.33333 135.615 9.15C135.915 9.95 136.065 10.825 136.065 11.775C136.065 12.0417 136.049 12.3083 136.015 12.575C135.999 12.825 135.957 13.0417 135.89 13.225H125.665V10.475H133.765L131.99 11.775C132.157 11.0583 132.149 10.425 131.965 9.875C131.782 9.30833 131.457 8.86667 130.99 8.55C130.54 8.21667 129.982 8.05 129.315 8.05C128.665 8.05 128.107 8.20833 127.64 8.525C127.174 8.84167 126.824 9.30833 126.59 9.925C126.357 10.5417 126.265 11.2917 126.315 12.175C126.249 12.9417 126.34 13.6167 126.59 14.2C126.84 14.7833 127.224 15.2417 127.74 15.575C128.257 15.8917 128.882 16.05 129.615 16.05C130.282 16.05 130.849 15.9167 131.315 15.65C131.799 15.3833 132.174 15.0167 132.44 14.55L135.44 15.975C135.174 16.6417 134.749 17.225 134.165 17.725C133.599 18.225 132.924 18.6167 132.14 18.9C131.357 19.1667 130.499 19.3 129.565 19.3ZM144.848 19.15C143.198 19.15 141.915 18.7083 140.998 17.825C140.098 16.925 139.648 15.675 139.648 14.075V8.6H137.348V5.35H137.473C138.173 5.35 138.707 5.175 139.073 4.825C139.457 4.475 139.648 3.95 139.648 3.25V2.25H143.398V5.35H146.598V8.6H143.398V13.825C143.398 14.2917 143.482 14.6833 143.648 15C143.815 15.3 144.073 15.525 144.423 15.675C144.773 15.825 145.207 15.9 145.723 15.9C145.84 15.9 145.973 15.8917 146.123 15.875C146.273 15.8583 146.432 15.8417 146.598 15.825V19C146.348 19.0333 146.065 19.0667 145.748 19.1C145.432 19.1333 145.132 19.15 144.848 19.15ZM148.796 19V0.0749993H152.546V8.05L152.096 7.45C152.413 6.63333 152.921 6.03333 153.621 5.65C154.338 5.25 155.171 5.05 156.121 5.05C157.154 5.05 158.054 5.26667 158.821 5.7C159.604 6.13333 160.213 6.74167 160.646 7.525C161.079 8.29167 161.296 9.19167 161.296 10.225V19H157.546V11.025C157.546 10.4917 157.438 10.0333 157.221 9.65C157.021 9.26667 156.729 8.96667 156.346 8.75C155.979 8.53333 155.546 8.425 155.046 8.425C154.563 8.425 154.129 8.53333 153.746 8.75C153.363 8.96667 153.063 9.26667 152.846 9.65C152.646 10.0333 152.546 10.4917 152.546 11.025V19H148.796ZM163.762 19V5.35H167.512V19H163.762ZM163.762 4.125V0.374998H167.512V4.125H163.762ZM170.256 19V5.35H173.756V8.05L173.556 7.45C173.873 6.63333 174.381 6.03333 175.081 5.65C175.798 5.25 176.631 5.05 177.581 5.05C178.614 5.05 179.514 5.26667 180.281 5.7C181.064 6.13333 181.673 6.74167 182.106 7.525C182.539 8.29167 182.756 9.19167 182.756 10.225V19H179.006V11.025C179.006 10.4917 178.898 10.0333 178.681 9.65C178.481 9.26667 178.189 8.96667 177.806 8.75C177.439 8.53333 177.006 8.425 176.506 8.425C176.023 8.425 175.589 8.53333 175.206 8.75C174.823 8.96667 174.523 9.26667 174.306 9.65C174.106 10.0333 174.006 10.4917 174.006 11.025V19H170.256ZM191.922 24.5C190.872 24.5 189.897 24.325 188.997 23.975C188.097 23.625 187.322 23.1333 186.672 22.5C186.038 21.8833 185.58 21.15 185.297 20.3L188.772 19.075C188.955 19.7083 189.33 20.2083 189.897 20.575C190.463 20.9417 191.138 21.125 191.922 21.125C192.538 21.125 193.072 21.0083 193.522 20.775C193.972 20.5583 194.313 20.2333 194.547 19.8C194.797 19.3667 194.922 18.8583 194.922 18.275V15.15L195.647 16.05C195.18 16.8167 194.58 17.3917 193.847 17.775C193.113 18.1417 192.255 18.325 191.272 18.325C190.005 18.325 188.872 18.0417 187.872 17.475C186.872 16.8917 186.088 16.1 185.522 15.1C184.955 14.0833 184.672 12.9333 184.672 11.65C184.672 10.3667 184.955 9.23333 185.522 8.25C186.088 7.25 186.863 6.46667 187.847 5.9C188.83 5.33333 189.947 5.05 191.197 5.05C192.18 5.05 193.038 5.25 193.772 5.65C194.505 6.03333 195.13 6.625 195.647 7.425L195.172 8.325V5.35H198.672V18.275C198.672 19.475 198.38 20.5417 197.797 21.475C197.213 22.425 196.413 23.1667 195.397 23.7C194.397 24.2333 193.238 24.5 191.922 24.5ZM191.797 14.925C192.43 14.925 192.98 14.7917 193.447 14.525C193.913 14.2583 194.272 13.8833 194.522 13.4C194.788 12.9167 194.922 12.35 194.922 11.7C194.922 11.05 194.788 10.4833 194.522 10C194.255 9.5 193.888 9.11667 193.422 8.85C192.955 8.56667 192.413 8.425 191.797 8.425C191.163 8.425 190.597 8.56667 190.097 8.85C189.613 9.11667 189.23 9.5 188.947 10C188.68 10.4833 188.547 11.05 188.547 11.7C188.547 12.3333 188.68 12.8917 188.947 13.375C189.23 13.8583 189.613 14.2417 190.097 14.525C190.597 14.7917 191.163 14.925 191.797 14.925ZM212.35 19.3C211.016 19.3 209.825 18.9833 208.775 18.35C207.725 17.7167 206.891 16.8583 206.275 15.775C205.675 14.6917 205.375 13.4917 205.375 12.175C205.375 10.8417 205.683 9.64167 206.3 8.575C206.916 7.49167 207.75 6.63333 208.8 6C209.85 5.36667 211.025 5.05 212.325 5.05C213.325 5.05 214.208 5.24167 214.975 5.625C215.758 5.99167 216.375 6.51667 216.825 7.2L216.25 7.95V0.0749993H220V19H216.5V16.5L216.85 17.275C216.383 17.9417 215.75 18.45 214.95 18.8C214.15 19.1333 213.283 19.3 212.35 19.3ZM212.8 15.925C213.483 15.925 214.083 15.7667 214.6 15.45C215.116 15.1333 215.516 14.6917 215.8 14.125C216.1 13.5583 216.25 12.9083 216.25 12.175C216.25 11.4417 216.1 10.7917 215.8 10.225C215.516 9.65833 215.116 9.21667 214.6 8.9C214.083 8.58333 213.483 8.425 212.8 8.425C212.116 8.425 211.5 8.59167 210.95 8.925C210.416 9.24167 210 9.68333 209.7 10.25C209.4 10.8 209.25 11.4417 209.25 12.175C209.25 12.9083 209.4 13.5583 209.7 14.125C210 14.6917 210.416 15.1333 210.95 15.45C211.5 15.7667 212.116 15.925 212.8 15.925ZM229.521 19.3C228.171 19.3 226.938 18.9917 225.821 18.375C224.721 17.7583 223.838 16.9167 223.171 15.85C222.521 14.7667 222.196 13.5417 222.196 12.175C222.196 10.7917 222.521 9.56667 223.171 8.5C223.838 7.43333 224.721 6.59167 225.821 5.975C226.938 5.35833 228.171 5.05 229.521 5.05C230.871 5.05 232.096 5.35833 233.196 5.975C234.296 6.59167 235.171 7.43333 235.821 8.5C236.488 9.56667 236.821 10.7917 236.821 12.175C236.821 13.5417 236.488 14.7667 235.821 15.85C235.171 16.9167 234.296 17.7583 233.196 18.375C232.096 18.9917 230.871 19.3 229.521 19.3ZM229.521 15.925C230.204 15.925 230.796 15.7667 231.296 15.45C231.813 15.1333 232.213 14.6917 232.496 14.125C232.796 13.5583 232.946 12.9083 232.946 12.175C232.946 11.4417 232.796 10.8 232.496 10.25C232.213 9.68333 231.813 9.24167 231.296 8.925C230.796 8.59167 230.204 8.425 229.521 8.425C228.838 8.425 228.238 8.59167 227.721 8.925C227.204 9.24167 226.796 9.68333 226.496 10.25C226.213 10.8 226.071 11.4417 226.071 12.175C226.071 12.9083 226.213 13.5583 226.496 14.125C226.796 14.6917 227.204 15.1333 227.721 15.45C228.238 15.7667 228.838 15.925 229.521 15.925ZM239.03 19V5.35H242.53V8.05L242.33 7.45C242.647 6.63333 243.155 6.03333 243.855 5.65C244.572 5.25 245.405 5.05 246.355 5.05C247.389 5.05 248.289 5.26667 249.055 5.7C249.839 6.13333 250.447 6.74167 250.88 7.525C251.314 8.29167 251.53 9.19167 251.53 10.225V19H247.78V11.025C247.78 10.4917 247.672 10.0333 247.455 9.65C247.255 9.26667 246.964 8.96667 246.58 8.75C246.214 8.53333 245.78 8.425 245.28 8.425C244.797 8.425 244.364 8.53333 243.98 8.75C243.597 8.96667 243.297 9.26667 243.08 9.65C242.88 10.0333 242.78 10.4917 242.78 11.025V19H239.03ZM260.571 19.3C259.121 19.3 257.863 18.9833 256.796 18.35C255.729 17.7 254.904 16.8333 254.321 15.75C253.738 14.6667 253.446 13.4667 253.446 12.15C253.446 10.7833 253.746 9.56667 254.346 8.5C254.963 7.43333 255.788 6.59167 256.821 5.975C257.854 5.35833 259.021 5.05 260.321 5.05C261.404 5.05 262.363 5.225 263.196 5.575C264.029 5.90833 264.729 6.38333 265.296 7C265.879 7.61667 266.321 8.33333 266.621 9.15C266.921 9.95 267.071 10.825 267.071 11.775C267.071 12.0417 267.054 12.3083 267.021 12.575C267.004 12.825 266.963 13.0417 266.896 13.225H256.671V10.475H264.771L262.996 11.775C263.163 11.0583 263.154 10.425 262.971 9.875C262.788 9.30833 262.463 8.86667 261.996 8.55C261.546 8.21667 260.988 8.05 260.321 8.05C259.671 8.05 259.113 8.20833 258.646 8.525C258.179 8.84167 257.829 9.30833 257.596 9.925C257.363 10.5417 257.271 11.2917 257.321 12.175C257.254 12.9417 257.346 13.6167 257.596 14.2C257.846 14.7833 258.229 15.2417 258.746 15.575C259.263 15.8917 259.888 16.05 260.621 16.05C261.288 16.05 261.854 15.9167 262.321 15.65C262.804 15.3833 263.179 15.0167 263.446 14.55L266.446 15.975C266.179 16.6417 265.754 17.225 265.171 17.725C264.604 18.225 263.929 18.6167 263.146 18.9C262.363 19.1667 261.504 19.3 260.571 19.3ZM273.529 13.25V12.675C273.529 11.9417 273.629 11.3 273.829 10.75C274.046 10.1833 274.321 9.68333 274.654 9.25C274.988 8.81667 275.329 8.425 275.679 8.075C276.163 7.59167 276.596 7.15833 276.979 6.775C277.363 6.375 277.554 5.91667 277.554 5.4C277.554 5.05 277.471 4.74167 277.304 4.475C277.138 4.19167 276.888 3.975 276.554 3.825C276.238 3.65833 275.838 3.575 275.354 3.575C274.738 3.575 274.196 3.76667 273.729 4.15C273.279 4.51667 273.004 5.01667 272.904 5.65L269.429 4.775C269.579 3.84167 269.921 3.025 270.454 2.325C271.004 1.625 271.704 1.075 272.554 0.674999C273.421 0.274999 274.388 0.0749993 275.454 0.0749993C276.754 0.0749993 277.846 0.333333 278.729 0.85C279.629 1.35 280.304 2 280.754 2.8C281.204 3.58333 281.429 4.41667 281.429 5.3C281.429 5.93333 281.304 6.5 281.054 7C280.821 7.48333 280.521 7.93333 280.154 8.35C279.788 8.75 279.404 9.14167 279.004 9.525C278.488 10.0083 278.029 10.5167 277.629 11.05C277.229 11.5833 277.029 12.2083 277.029 12.925V13.25H273.529ZM273.429 19V15.25H277.179V19H273.429Z" fill="black"/>
</svg>
