<svg width="144" height="16" viewBox="0 0 144 16" fill="none" xmlns="http://www.w3.org/2000/svg">
<path d="M0.155 12V0.824999H7.52V2.4H1.925V5.61H7.22V7.185H1.925V10.425H7.52V12H0.155ZM8.99879 12V3.885H10.6188V5.64L10.4088 5.37C10.5788 4.82 10.8888 4.405 11.3388 4.125C11.7888 3.845 12.3038 3.705 12.8838 3.705C13.5338 3.705 14.1088 3.88 14.6088 4.23C15.1188 4.57 15.4588 5.025 15.6288 5.595L15.1488 5.64C15.3888 4.99 15.7538 4.505 16.2438 4.185C16.7438 3.865 17.3138 3.705 17.9538 3.705C18.5138 3.705 19.0188 3.835 19.4688 4.095C19.9288 4.355 20.2938 4.715 20.5638 5.175C20.8338 5.635 20.9688 6.16 20.9688 6.75V12H19.2738V7.215C19.2738 6.805 19.1988 6.46 19.0488 6.18C18.9088 5.89 18.7088 5.67 18.4488 5.52C18.1988 5.36 17.9038 5.28 17.5638 5.28C17.2238 5.28 16.9238 5.36 16.6638 5.52C16.4038 5.67 16.1988 5.89 16.0488 6.18C15.8988 6.47 15.8238 6.815 15.8238 7.215V12H14.1438V7.215C14.1438 6.805 14.0688 6.46 13.9188 6.18C13.7788 5.89 13.5788 5.67 13.3188 5.52C13.0688 5.36 12.7688 5.28 12.4188 5.28C12.0788 5.28 11.7788 5.36 11.5188 5.52C11.2588 5.67 11.0538 5.89 10.9038 6.18C10.7638 6.47 10.6938 6.815 10.6938 7.215V12H8.99879ZM22.783 15V3.885H24.403V5.565L24.208 5.175C24.508 4.715 24.908 4.355 25.408 4.095C25.908 3.835 26.478 3.705 27.118 3.705C27.888 3.705 28.578 3.89 29.188 4.26C29.808 4.63 30.293 5.135 30.643 5.775C31.003 6.415 31.183 7.135 31.183 7.935C31.183 8.735 31.003 9.455 30.643 10.095C30.293 10.735 29.813 11.245 29.203 11.625C28.593 11.995 27.898 12.18 27.118 12.18C26.488 12.18 25.913 12.05 25.393 11.79C24.883 11.53 24.488 11.155 24.208 10.665L24.478 10.35V15H22.783ZM26.953 10.605C27.433 10.605 27.858 10.49 28.228 10.26C28.598 10.03 28.888 9.715 29.098 9.315C29.318 8.905 29.428 8.445 29.428 7.935C29.428 7.425 29.318 6.97 29.098 6.57C28.888 6.17 28.598 5.855 28.228 5.625C27.858 5.395 27.433 5.28 26.953 5.28C26.483 5.28 26.058 5.395 25.678 5.625C25.308 5.855 25.013 6.17 24.793 6.57C24.583 6.97 24.478 7.425 24.478 7.935C24.478 8.445 24.583 8.905 24.793 9.315C25.013 9.715 25.308 10.03 25.678 10.26C26.058 10.49 26.483 10.605 26.953 10.605ZM32.8318 12V0.645H34.5268V12H32.8318ZM40.4236 12.18C39.6436 12.18 38.9286 11.995 38.2786 11.625C37.6386 11.255 37.1286 10.75 36.7486 10.11C36.3686 9.47 36.1786 8.745 36.1786 7.935C36.1786 7.115 36.3686 6.39 36.7486 5.76C37.1286 5.12 37.6386 4.62 38.2786 4.26C38.9186 3.89 39.6336 3.705 40.4236 3.705C41.2236 3.705 41.9386 3.89 42.5686 4.26C43.2086 4.62 43.7136 5.12 44.0836 5.76C44.4636 6.39 44.6536 7.115 44.6536 7.935C44.6536 8.755 44.4636 9.485 44.0836 10.125C43.7036 10.765 43.1936 11.27 42.5536 11.64C41.9136 12 41.2036 12.18 40.4236 12.18ZM40.4236 10.605C40.9036 10.605 41.3286 10.49 41.6986 10.26C42.0686 10.03 42.3586 9.715 42.5686 9.315C42.7886 8.905 42.8986 8.445 42.8986 7.935C42.8986 7.425 42.7886 6.97 42.5686 6.57C42.3586 6.17 42.0686 5.855 41.6986 5.625C41.3286 5.395 40.9036 5.28 40.4236 5.28C39.9536 5.28 39.5286 5.395 39.1486 5.625C38.7786 5.855 38.4836 6.17 38.2636 6.57C38.0536 6.97 37.9486 7.425 37.9486 7.935C37.9486 8.445 38.0536 8.905 38.2636 9.315C38.4836 9.715 38.7786 10.03 39.1486 10.26C39.5286 10.49 39.9536 10.605 40.4236 10.605ZM46.8819 15.315C46.6819 15.315 46.4819 15.295 46.2819 15.255C46.0919 15.225 45.9169 15.175 45.7569 15.105V13.65C45.8769 13.68 46.0219 13.705 46.1919 13.725C46.3619 13.755 46.5269 13.77 46.6869 13.77C47.1569 13.77 47.5019 13.665 47.7219 13.455C47.9519 13.255 48.1569 12.94 48.3369 12.51L48.8769 11.28L48.8469 12.705L45.3369 3.885H47.1519L49.7469 10.65H49.1319L51.7119 3.885H53.5419L49.9569 12.885C49.7669 13.365 49.5269 13.785 49.2369 14.145C48.9569 14.515 48.6219 14.8 48.2319 15C47.8519 15.21 47.4019 15.315 46.8819 15.315ZM58.3654 12.18C57.5554 12.18 56.8354 11.995 56.2054 11.625C55.5854 11.245 55.1004 10.735 54.7504 10.095C54.4004 9.445 54.2254 8.72 54.2254 7.92C54.2254 7.1 54.4004 6.375 54.7504 5.745C55.1104 5.115 55.5904 4.62 56.1904 4.26C56.7904 3.89 57.4704 3.705 58.2304 3.705C58.8404 3.705 59.3854 3.81 59.8654 4.02C60.3454 4.23 60.7504 4.52 61.0804 4.89C61.4104 5.25 61.6604 5.665 61.8304 6.135C62.0104 6.605 62.1004 7.105 62.1004 7.635C62.1004 7.765 62.0954 7.9 62.0854 8.04C62.0754 8.18 62.0554 8.31 62.0254 8.43H55.5604V7.08H61.0654L60.2554 7.695C60.3554 7.205 60.3204 6.77 60.1504 6.39C59.9904 6 59.7404 5.695 59.4004 5.475C59.0704 5.245 58.6804 5.13 58.2304 5.13C57.7804 5.13 57.3804 5.245 57.0304 5.475C56.6804 5.695 56.4104 6.015 56.2204 6.435C56.0304 6.845 55.9554 7.345 55.9954 7.935C55.9454 8.485 56.0204 8.965 56.2204 9.375C56.4304 9.785 56.7204 10.105 57.0904 10.335C57.4704 10.565 57.9004 10.68 58.3804 10.68C58.8704 10.68 59.2854 10.57 59.6254 10.35C59.9754 10.13 60.2504 9.845 60.4504 9.495L61.8304 10.17C61.6704 10.55 61.4204 10.895 61.0804 11.205C60.7504 11.505 60.3504 11.745 59.8804 11.925C59.4204 12.095 58.9154 12.18 58.3654 12.18ZM67.5646 12.18C66.7546 12.18 66.0346 11.995 65.4046 11.625C64.7846 11.245 64.2996 10.735 63.9496 10.095C63.5996 9.445 63.4246 8.72 63.4246 7.92C63.4246 7.1 63.5996 6.375 63.9496 5.745C64.3096 5.115 64.7896 4.62 65.3896 4.26C65.9896 3.89 66.6696 3.705 67.4296 3.705C68.0396 3.705 68.5846 3.81 69.0646 4.02C69.5446 4.23 69.9496 4.52 70.2796 4.89C70.6096 5.25 70.8596 5.665 71.0296 6.135C71.2096 6.605 71.2996 7.105 71.2996 7.635C71.2996 7.765 71.2946 7.9 71.2846 8.04C71.2746 8.18 71.2546 8.31 71.2246 8.43H64.7596V7.08H70.2646L69.4546 7.695C69.5546 7.205 69.5196 6.77 69.3496 6.39C69.1896 6 68.9396 5.695 68.5996 5.475C68.2696 5.245 67.8796 5.13 67.4296 5.13C66.9796 5.13 66.5796 5.245 66.2296 5.475C65.8796 5.695 65.6096 6.015 65.4196 6.435C65.2296 6.845 65.1546 7.345 65.1946 7.935C65.1446 8.485 65.2196 8.965 65.4196 9.375C65.6296 9.785 65.9196 10.105 66.2896 10.335C66.6696 10.565 67.0996 10.68 67.5796 10.68C68.0696 10.68 68.4846 10.57 68.8246 10.35C69.1746 10.13 69.4496 9.845 69.6496 9.495L71.0296 10.17C70.8696 10.55 70.6196 10.895 70.2796 11.205C69.9496 11.505 69.5496 11.745 69.0796 11.925C68.6196 12.095 68.1146 12.18 67.5646 12.18ZM75.9539 12.18C75.1239 12.18 74.3939 11.975 73.7639 11.565C73.1439 11.155 72.7089 10.605 72.4589 9.915L73.7639 9.3C73.9839 9.76 74.2839 10.125 74.6639 10.395C75.0539 10.665 75.4839 10.8 75.9539 10.8C76.3539 10.8 76.6789 10.71 76.9289 10.53C77.1789 10.35 77.3039 10.105 77.3039 9.795C77.3039 9.595 77.2489 9.435 77.1389 9.315C77.0289 9.185 76.8889 9.08 76.7189 9C76.5589 8.92 76.3939 8.86 76.2239 8.82L74.9489 8.46C74.2489 8.26 73.7239 7.96 73.3739 7.56C73.0339 7.15 72.8639 6.675 72.8639 6.135C72.8639 5.645 72.9889 5.22 73.2389 4.86C73.4889 4.49 73.8339 4.205 74.2739 4.005C74.7139 3.805 75.2089 3.705 75.7589 3.705C76.4989 3.705 77.1589 3.89 77.7389 4.26C78.3189 4.62 78.7289 5.125 78.9689 5.775L77.6639 6.39C77.5039 6 77.2489 5.69 76.8989 5.46C76.5589 5.23 76.1739 5.115 75.7439 5.115C75.3739 5.115 75.0789 5.205 74.8589 5.385C74.6389 5.555 74.5289 5.78 74.5289 6.06C74.5289 6.25 74.5789 6.41 74.6789 6.54C74.7789 6.66 74.9089 6.76 75.0689 6.84C75.2289 6.91 75.3939 6.97 75.5639 7.02L76.8839 7.41C77.5539 7.6 78.0689 7.9 78.4289 8.31C78.7889 8.71 78.9689 9.19 78.9689 9.75C78.9689 10.23 78.8389 10.655 78.5789 11.025C78.3289 11.385 77.9789 11.67 77.5289 11.88C77.0789 12.08 76.5539 12.18 75.9539 12.18ZM82.4267 12L86.3567 0.824999H88.5467L92.4767 12H90.5867L89.7317 9.495H85.1867L84.3167 12H82.4267ZM85.6967 7.92H89.1917L87.2117 2.07H87.7067L85.6967 7.92ZM97.1995 12.18C96.3895 12.18 95.6695 11.995 95.0395 11.625C94.4195 11.245 93.9245 10.735 93.5545 10.095C93.1945 9.455 93.0145 8.73 93.0145 7.92C93.0145 7.12 93.1945 6.4 93.5545 5.76C93.9145 5.12 94.4095 4.62 95.0395 4.26C95.6695 3.89 96.3895 3.705 97.1995 3.705C97.7495 3.705 98.2645 3.805 98.7445 4.005C99.2245 4.195 99.6395 4.46 99.9895 4.8C100.349 5.14 100.614 5.535 100.784 5.985L99.2995 6.675C99.1295 6.255 98.8545 5.92 98.4745 5.67C98.1045 5.41 97.6795 5.28 97.1995 5.28C96.7395 5.28 96.3245 5.395 95.9545 5.625C95.5945 5.845 95.3095 6.16 95.0995 6.57C94.8895 6.97 94.7845 7.425 94.7845 7.935C94.7845 8.445 94.8895 8.905 95.0995 9.315C95.3095 9.715 95.5945 10.03 95.9545 10.26C96.3245 10.49 96.7395 10.605 97.1995 10.605C97.6895 10.605 98.1145 10.48 98.4745 10.23C98.8445 9.97 99.1195 9.625 99.2995 9.195L100.784 9.9C100.624 10.33 100.364 10.72 100.004 11.07C99.6545 11.41 99.2395 11.68 98.7595 11.88C98.2795 12.08 97.7595 12.18 97.1995 12.18ZM106.296 12.18C105.486 12.18 104.766 11.995 104.136 11.625C103.516 11.245 103.021 10.735 102.651 10.095C102.291 9.455 102.111 8.73 102.111 7.92C102.111 7.12 102.291 6.4 102.651 5.76C103.011 5.12 103.506 4.62 104.136 4.26C104.766 3.89 105.486 3.705 106.296 3.705C106.846 3.705 107.361 3.805 107.841 4.005C108.321 4.195 108.736 4.46 109.086 4.8C109.446 5.14 109.711 5.535 109.881 5.985L108.396 6.675C108.226 6.255 107.951 5.92 107.571 5.67C107.201 5.41 106.776 5.28 106.296 5.28C105.836 5.28 105.421 5.395 105.051 5.625C104.691 5.845 104.406 6.16 104.196 6.57C103.986 6.97 103.881 7.425 103.881 7.935C103.881 8.445 103.986 8.905 104.196 9.315C104.406 9.715 104.691 10.03 105.051 10.26C105.421 10.49 105.836 10.605 106.296 10.605C106.786 10.605 107.211 10.48 107.571 10.23C107.941 9.97 108.216 9.625 108.396 9.195L109.881 9.9C109.721 10.33 109.461 10.72 109.101 11.07C108.751 11.41 108.336 11.68 107.856 11.88C107.376 12.08 106.856 12.18 106.296 12.18ZM115.453 12.18C114.673 12.18 113.958 11.995 113.308 11.625C112.668 11.255 112.158 10.75 111.778 10.11C111.398 9.47 111.208 8.745 111.208 7.935C111.208 7.115 111.398 6.39 111.778 5.76C112.158 5.12 112.668 4.62 113.308 4.26C113.948 3.89 114.663 3.705 115.453 3.705C116.253 3.705 116.968 3.89 117.598 4.26C118.238 4.62 118.743 5.12 119.113 5.76C119.493 6.39 119.683 7.115 119.683 7.935C119.683 8.755 119.493 9.485 119.113 10.125C118.733 10.765 118.223 11.27 117.583 11.64C116.943 12 116.233 12.18 115.453 12.18ZM115.453 10.605C115.933 10.605 116.358 10.49 116.728 10.26C117.098 10.03 117.388 9.715 117.598 9.315C117.818 8.905 117.928 8.445 117.928 7.935C117.928 7.425 117.818 6.97 117.598 6.57C117.388 6.17 117.098 5.855 116.728 5.625C116.358 5.395 115.933 5.28 115.453 5.28C114.983 5.28 114.558 5.395 114.178 5.625C113.808 5.855 113.513 6.17 113.293 6.57C113.083 6.97 112.978 7.425 112.978 7.935C112.978 8.445 113.083 8.905 113.293 9.315C113.513 9.715 113.808 10.03 114.178 10.26C114.558 10.49 114.983 10.605 115.453 10.605ZM124.233 12.18C123.623 12.18 123.088 12.045 122.628 11.775C122.168 11.495 121.808 11.11 121.548 10.62C121.298 10.12 121.173 9.545 121.173 8.895V3.885H122.868V8.745C122.868 9.115 122.943 9.44 123.093 9.72C123.243 10 123.453 10.22 123.723 10.38C123.993 10.53 124.303 10.605 124.653 10.605C125.013 10.605 125.328 10.525 125.598 10.365C125.868 10.205 126.078 9.98 126.228 9.69C126.388 9.4 126.468 9.06 126.468 8.67V3.885H128.148V12H126.543V10.41L126.723 10.62C126.533 11.12 126.218 11.505 125.778 11.775C125.338 12.045 124.823 12.18 124.233 12.18ZM130.127 12V3.885H131.747V5.475L131.552 5.265C131.752 4.755 132.072 4.37 132.512 4.11C132.952 3.84 133.462 3.705 134.042 3.705C134.642 3.705 135.172 3.835 135.632 4.095C136.092 4.355 136.452 4.715 136.712 5.175C136.972 5.635 137.102 6.165 137.102 6.765V12H135.422V7.215C135.422 6.805 135.347 6.46 135.197 6.18C135.047 5.89 134.832 5.67 134.552 5.52C134.282 5.36 133.972 5.28 133.622 5.28C133.272 5.28 132.957 5.36 132.677 5.52C132.407 5.67 132.197 5.89 132.047 6.18C131.897 6.47 131.822 6.815 131.822 7.215V12H130.127ZM142.426 12.09C141.576 12.09 140.916 11.85 140.446 11.37C139.976 10.89 139.741 10.215 139.741 9.345V5.415H138.316V3.885H138.541C138.921 3.885 139.216 3.775 139.426 3.555C139.636 3.335 139.741 3.035 139.741 2.655V2.025H141.436V3.885H143.281V5.415H141.436V9.27C141.436 9.55 141.481 9.79 141.571 9.99C141.661 10.18 141.806 10.33 142.006 10.44C142.206 10.54 142.466 10.59 142.786 10.59C142.866 10.59 142.956 10.585 143.056 10.575C143.156 10.565 143.251 10.555 143.341 10.545V12C143.201 12.02 143.046 12.04 142.876 12.06C142.706 12.08 142.556 12.09 142.426 12.09Z" fill="#101828"/>
</svg>
